<?xml version="1.0" standalone="no"?>
<!DOCTYPE svg PUBLIC "-//W3C//DTD SVG 20010904//EN"
 "http://www.w3.org/TR/2001/REC-SVG-20010904/DTD/svg10.dtd">
<svg version="1.0" xmlns="http://www.w3.org/2000/svg"
 width="512.000000pt" height="512.000000pt" viewBox="0 0 512.000000 512.000000"
 preserveAspectRatio="xMidYMid meet">
<metadata>
Created by potrace 1.16, written by Peter Selinger 2001-2019
</metadata>
<g transform="translate(0.000000,512.000000) scale(0.100000,-0.100000)"
fill="#000000" stroke="none">
<path d="M1472 4791 c-790 -249 -1048 -334 -1068 -351 l-25 -24 3 -1051 c4
-1037 4 -1052 26 -1174 105 -580 356 -1069 751 -1461 352 -349 782 -591 1255
-705 132 -33 170 -32 328 9 455 117 879 358 1213 690 219 218 377 438 510 711
118 241 181 427 229 672 44 230 46 275 46 1314 l0 993 -22 23 c-25 27 11 15
-1243 408 -578 181 -893 275 -920 274 -23 0 -491 -142 -1083 -328z m1948 -151
c459 -144 896 -281 970 -304 l135 -43 3 -919 c2 -619 -1 -952 -8 -1019 -38
-346 -151 -683 -329 -983 -324 -547 -829 -937 -1445 -1119 -158 -47 -212 -47
-372 0 -615 181 -1122 573 -1445 1119 -171 288 -273 582 -325 938 -14 99 -17
245 -21 1047 l-5 932 84 25 c45 14 490 154 988 310 498 157 912 283 920 281 8
-2 391 -122 850 -265z"/>
<path d="M1760 4294 c-654 -205 -779 -247 -797 -269 l-23 -26 0 -774 c0 -834
3 -889 54 -1100 74 -300 224 -605 414 -840 145 -178 357 -359 568 -485 204
-121 512 -237 605 -226 130 14 465 156 639 272 142 94 166 127 137 195 -18 44
-38 60 -84 66 -34 4 -49 -3 -138 -62 -129 -86 -332 -185 -467 -230 l-108 -35
-107 36 c-614 200 -1090 709 -1248 1335 -55 216 -57 249 -62 1016 l-5 712 34
9 c18 5 338 105 711 222 l678 212 502 -157 c276 -87 592 -186 702 -220 l200
-63 0 -754 0 -753 -27 -125 c-32 -148 -89 -317 -152 -454 -25 -54 -46 -107
-46 -118 0 -28 27 -76 49 -88 30 -15 94 -12 120 6 49 35 172 338 220 541 49
209 51 248 51 1080 l0 782 -22 26 c-20 22 -140 63 -803 270 -429 135 -789 244
-800 244 -11 -1 -369 -111 -795 -245z"/>
<path d="M2703 3058 l-323 -322 -143 142 c-200 198 -171 202 -428 -54 -210
-209 -221 -226 -195 -287 20 -45 704 -724 738 -732 61 -15 78 0 625 548 568
569 560 559 530 628 -8 19 -97 116 -199 217 l-184 182 -49 0 -49 0 -323 -322z
m119 -560 l-442 -443 -260 260 -260 260 95 95 95 95 138 -138 c150 -150 178
-166 238 -134 16 9 168 155 339 326 l310 311 95 -95 95 -95 -443 -442z"/>
<path d="M3519 1381 c-63 -64 -20 -174 69 -174 53 0 87 23 102 68 24 73 -22
135 -100 135 -33 0 -48 -6 -71 -29z"/>
</g>
</svg>
